<svg width="80" height="80" viewBox="0 0 80 80" fill="none" xmlns="http://www.w3.org/2000/svg">
<rect x="0.5" y="0.5" width="79" height="79" rx="23.5" stroke="white"/>
<path d="M31.2813 43.984L31.2813 43.9841C31.4109 44.6007 31.543 45.2164 31.6771 45.8418C31.6965 45.9321 31.716 46.0227 31.7354 46.1135C31.7754 46.1097 31.815 46.1056 31.8553 46.1011L31.8594 46.1006L31.8594 46.1006C32.2109 46.0635 32.563 46.0257 32.9156 45.9878C33.9333 45.8786 34.9549 45.769 35.9763 45.6736L31.2813 43.984ZM31.2813 43.984C31.2389 43.7825 31.1977 43.5746 31.1559 43.3632C31.066 42.9087 30.9729 42.4387 30.858 41.9845L30.8579 41.9841M31.2813 43.984L30.8579 41.9841M30.8579 41.9841C30.779 41.6731 30.5446 41.3533 30.2642 41.1865L30.2632 41.1859M30.8579 41.9841L30.2632 41.1859M30.2632 41.1859C29.2654 40.5952 28.2583 40.0179 27.2409 39.4348C27.0358 39.3172 26.8302 39.1993 26.6242 39.0811M30.2632 41.1859L26.6242 39.0811M26.6242 39.0811C26.7394 38.8236 26.8544 38.5663 26.9693 38.3091C27.4228 37.2944 27.8752 36.282 28.3374 35.2739C28.4142 35.107 28.4635 34.9282 28.4628 34.7332C28.4621 34.5386 28.4118 34.3613 28.3367 34.1974L26.6242 39.0811ZM26.626 30.3918C26.7656 30.7035 26.9048 31.0149 27.0439 31.3261C27.4726 32.2854 27.9003 33.2425 28.3366 34.197L26.626 30.3918ZM26.626 30.3918C26.7244 30.3331 26.8209 30.2761 26.9185 30.2197L26.626 30.3918ZM30.1954 28.3459L30.1952 28.3461C29.3341 28.8259 28.4804 29.3187 27.6229 29.8135C27.3885 29.9488 27.1538 30.0843 26.9186 30.2197L30.1954 28.3459ZM30.1954 28.3459C30.3705 28.2482 30.5303 28.1243 30.6563 27.9526C30.7825 27.7805 30.8533 27.5897 30.8931 27.3895L30.8932 27.3887M30.1954 28.3459L30.8932 27.3887M30.8932 27.3887C31.1136 26.2699 31.3488 25.1548 31.5848 24.0359M30.8932 27.3887L31.5848 24.0359M53.3792 39.0769C53.2473 38.7821 53.1159 38.4877 52.9846 38.1935C52.5548 37.2302 52.1265 36.2703 51.6868 35.3145C51.6073 35.1423 51.551 34.9557 51.5478 34.7495C51.5446 34.5413 51.5959 34.3491 51.6798 34.1663L51.6802 34.1655C52.1371 33.1748 52.5814 32.1795 53.0272 31.1811C53.1452 30.9167 53.2634 30.6521 53.3819 30.3872C53.376 30.3838 53.3701 30.3804 53.3641 30.377L53.3632 30.3765C53.045 30.1938 52.7257 30.0113 52.4059 29.8285C51.518 29.3212 50.6263 28.8116 49.7439 28.2886L49.7432 28.2881C49.596 28.2005 49.469 28.0776 49.372 27.9504C49.2759 27.8244 49.1862 27.6639 49.1444 27.4857M53.3792 39.0769L49.6311 27.3713M53.3792 39.0769C53.3515 39.0929 53.3239 39.1089 53.2964 39.1249C53.0644 39.2594 52.8366 39.3914 52.6064 39.5234L52.6061 39.5236C52.3548 39.6679 52.1048 39.8123 51.8554 39.9563C51.1597 40.3579 50.4686 40.7569 49.7692 41.1446L49.7683 41.1451C49.5955 41.2413 49.4451 41.3649 49.3292 41.5306C49.2147 41.6942 49.1528 41.8717 49.1175 42.0484C48.8881 43.1858 48.6506 44.3216 48.4125 45.4597C48.3673 45.676 48.322 45.8923 48.2768 46.1088C48.1172 46.0923 47.9574 46.0758 47.7974 46.0593C47.4333 46.0218 47.0681 45.9841 46.7021 45.946C46.4643 45.921 46.225 45.8949 45.9846 45.8686C45.3324 45.7974 44.6722 45.7254 44.0139 45.672M53.3792 39.0769L44.0145 45.6721C44.0143 45.6721 44.0141 45.672 44.0139 45.672M49.1444 27.4857C49.1444 27.4856 49.1443 27.4854 49.1443 27.4853L49.6311 27.3713M49.1444 27.4857C49.1444 27.4859 49.1444 27.486 49.1445 27.4861L49.6311 27.3713M49.1444 27.4857C48.9948 26.8513 48.864 26.2072 48.735 25.572C48.6778 25.2899 48.6208 25.0095 48.5628 24.7325M49.6311 27.3713C49.4834 26.7446 49.3552 26.1132 49.2269 25.4817C49.1692 25.1976 49.1115 24.9134 49.0521 24.6296M48.5628 24.7325L49.0521 24.6296M48.5628 24.7325C48.4786 24.3326 48.3915 23.936 48.3047 23.5406C48.2907 23.4769 48.2767 23.4132 48.2627 23.3496M48.5628 24.7325C48.5627 24.7324 48.5627 24.7323 48.5627 24.7322L49.0521 24.6296M49.0521 24.6296L48.2627 23.3496M48.2627 23.3496C48.3175 23.3437 48.3723 23.3378 48.427 23.332C48.4483 23.3298 48.46 23.3302 48.4887 23.3312C48.5183 23.3321 48.5662 23.3337 48.6618 23.3337V22.8337L48.3816 22.8946M48.2627 23.3496C48.2327 23.2129 48.2028 23.0763 48.1732 22.9398L48.3813 22.8946M48.2627 23.3496C47.9602 23.382 47.6574 23.4146 47.3545 23.4473C46.2391 23.5676 45.1214 23.6881 44.0028 23.7979M48.2627 23.3496L40.6197 20.5592C40.4138 20.3736 40.2071 20.1874 39.9993 20M48.3816 22.8946L48.3752 22.8347L48.3813 22.8946M48.3816 22.8946L48.3813 22.8946M48.3816 22.8946L48.3813 22.8946M44.0028 23.7979C44.0034 23.7978 44.0041 23.7978 44.0047 23.7977L43.9539 23.3003L44.0028 23.7979ZM44.0028 23.7979C43.8477 23.8134 43.6952 23.7878 43.5686 23.7476C43.4412 23.7071 43.3031 23.64 43.1864 23.54L43.1857 23.5394C42.756 23.1697 42.3347 22.7858 41.9196 22.4077C41.7665 22.2683 41.6143 22.1296 41.4628 21.9927M41.4628 21.9927C41.4629 21.9928 41.4629 21.9928 41.463 21.9928L41.7981 21.6218L41.4628 21.9927ZM41.4628 21.9927C41.0716 21.6394 40.6802 21.2867 40.2856 20.9311C40.1905 20.8455 40.0953 20.7597 39.9998 20.6736M39.9998 20.6736C40.1112 20.5729 40.2228 20.472 40.3346 20.3709L39.9993 20M39.9998 20.6736C39.8756 20.7861 39.7516 20.8983 39.6277 21.0103C38.6993 21.8503 37.7823 22.68 36.8599 23.504L36.8588 23.505C36.7795 23.5754 36.6775 23.6494 36.5632 23.7068C36.4585 23.7595 36.2898 23.8255 36.0953 23.8105M39.9998 20.6736C39.8884 20.5732 39.7766 20.4725 39.6645 20.3713L39.9993 20M39.9993 20C39.7624 20.2141 39.5267 20.4274 39.2918 20.64L36.0953 23.8105M36.0953 23.8105C35.5541 23.769 35.0113 23.7094 34.478 23.6508C34.2869 23.6299 34.097 23.609 33.9088 23.5892L36.0953 23.8105ZM44.0139 45.672C43.8398 45.6578 43.6706 45.6938 43.5336 45.7435C43.3947 45.7938 43.2513 45.8718 43.1326 45.9768L43.132 45.9774C42.2065 46.7989 41.2901 47.6308 40.3572 48.4777C40.2397 48.5844 40.122 48.6913 40.0039 48.7984M44.0139 45.672L40.0039 48.7984M40.0039 48.7984C39.8663 48.6767 39.7308 48.5564 39.5953 48.4338C39.345 48.2073 39.0944 47.9794 38.8433 47.7511C38.1891 47.1561 37.5313 46.5579 36.8651 45.9712L36.8643 45.9705C36.7436 45.8646 36.5978 45.7878 36.4581 45.7391C36.32 45.6909 36.1502 45.6573 35.9766 45.6735L40.0039 48.7984ZM40.0024 44.4099H40.0023C34.6705 44.4109 30.3194 40.027 30.3379 34.7067M40.0024 44.4099L30.3379 34.7067M40.0024 44.4099C45.3214 44.4078 49.6523 40.0735 49.6606 34.7455M40.0024 44.4099L40.0183 25.0696M30.3379 34.7067C30.3555 29.4868 34.5532 25.0758 40.0183 25.0696M30.3379 34.7067L40.0183 25.0696M31.5848 24.0359C31.6324 23.8105 31.68 23.5849 31.7275 23.359M31.5848 24.0359L31.7275 23.359M31.7275 23.359C32.4601 23.4365 33.1841 23.5129 33.9088 23.5892L31.7275 23.359ZM49.6606 34.7455C49.6699 29.4291 45.3596 25.0634 40.0183 25.0696M49.6606 34.7455L49.1606 34.7446L49.6606 34.7454C49.6606 34.7454 49.6606 34.7455 49.6606 34.7455ZM52.1087 40.3874C51.4119 40.7897 50.7152 41.1919 50.0116 41.5819L53.959 39.1682C53.974 39.2067 53.9899 39.2474 54.0074 39.2911C53.8527 39.3803 53.7004 39.4686 53.5493 39.5562C53.3162 39.6914 53.086 39.8248 52.8551 39.9572C52.6061 40.1002 52.3574 40.2438 52.1087 40.3874Z" stroke="white"/>
<path d="M27.2817 56.0811C27.3502 55.908 27.3913 55.7877 27.4451 55.6732C28.4115 53.6172 29.3857 51.565 30.3414 49.505C30.4813 49.2028 30.6387 49.0649 30.9928 49.0345C32.417 48.9113 33.8363 48.7382 35.2585 48.5973C35.3955 48.5836 35.5804 48.6247 35.6782 48.7118C36.9106 49.8112 38.1304 50.9243 39.3814 52.059C38.1441 54.6863 36.9087 57.3107 35.6449 59.9957C35.3612 59.67 35.1069 59.3843 34.8585 59.0928C34.0916 58.192 33.3335 57.2813 32.552 56.3932C32.4346 56.2601 32.2116 56.1535 32.0336 56.1486C30.6026 56.1105 29.1715 56.0997 27.7405 56.0811C27.6026 56.0792 27.4656 56.0811 27.2817 56.0811Z" fill="white"/>
<path d="M52.69 56.0813C52.5364 56.0813 52.3985 56.0794 52.2606 56.0813C50.8423 56.0999 49.4239 56.1234 48.0066 56.1322C47.7513 56.1341 47.5792 56.2124 47.4129 56.4129C46.5228 57.483 45.616 58.5384 44.7142 59.5987C44.6144 59.7161 44.5117 59.8306 44.363 59.9998C43.1051 57.3294 41.8697 54.707 40.6216 52.0592C41.6467 51.1309 42.6962 50.2359 43.6763 49.2705C44.2202 48.7344 44.7425 48.5124 45.528 48.6503C46.7536 48.8655 48.0056 48.931 49.2449 49.0739C49.3486 49.0856 49.4875 49.1766 49.5315 49.2685C50.584 51.484 51.6258 53.7054 52.6675 55.9258C52.6822 55.9571 52.6782 55.9982 52.69 56.0813Z" fill="white"/>
<path d="M40.0098 41.5661C36.2312 41.571 33.1275 38.4752 33.152 34.7249C33.1765 30.96 36.24 27.9033 39.9922 27.8994C43.761 27.8955 46.8686 30.9992 46.85 34.7465C46.8304 38.5133 43.7727 41.5612 40.0098 41.5661Z" fill="white"/>
</svg>
