<svg width="80" height="80" viewBox="0 0 80 80" fill="none" xmlns="http://www.w3.org/2000/svg">
<rect x="0.5" y="0.5" width="79" height="79" rx="23.5" stroke="white"/>
<path d="M39.8413 48.1998L39.8661 48.2764C39.9471 48.2522 40.0277 48.2285 40.107 48.2052C40.2435 48.165 40.376 48.1261 40.4989 48.088C40.8567 47.9773 41.182 47.8609 41.4753 47.706L41.4754 47.706C42.4673 47.1825 43.4269 46.613 44.3988 46.0363C44.8155 45.7889 45.2345 45.5403 45.6592 45.2933L45.6593 45.2933C47.14 44.4328 48.6204 43.5707 50.101 42.7084C54.4015 40.2039 58.7044 37.698 63.0259 35.2272L39.8413 48.1998ZM39.8413 48.1998L39.4414 48.2386M39.8413 48.1998L39.4414 48.2386M39.4414 48.2386C38.7536 48.3053 38.116 48.0841 37.462 47.7039L37.4616 47.7037M39.4414 48.2386L37.4616 47.7037M37.4616 47.7037C35.2971 46.448 33.1332 45.191 30.9692 43.9338C25.9475 41.0166 20.9254 38.0992 15.895 35.198L15.6542 35.6156M37.4616 47.7037L15.6542 35.6156M15.6542 35.6156L15.895 35.198C15.2296 34.8143 15.251 33.9629 15.8946 33.5925L15.8947 33.5925M15.6542 35.6156L15.8947 33.5925M15.8947 33.5925C19.9571 31.2537 24.0138 28.8982 28.0696 26.5432C31.2337 24.706 34.3973 22.8691 37.5626 21.0407L37.5626 21.0406M15.8947 33.5925L37.5626 21.0406M37.5626 21.0406C38.8801 20.2793 40.2176 20.3376 41.5643 21.1181M37.5626 21.0406L41.5643 21.1181M41.5643 21.1181C47.8637 24.7751 54.1616 28.435 60.4596 32.095M41.5643 21.1181L60.4596 32.095M60.4596 32.095C60.7007 32.2352 60.9483 32.3872 61.2017 32.5426M60.4596 32.095L61.2017 32.5426M61.2017 32.5426C61.7954 32.9068 62.4202 33.2901 63.0635 33.5863M61.2017 32.5426L63.0635 33.5863M63.0635 33.5863C63.6903 33.8752 63.7813 34.7945 63.0261 35.227L63.0635 33.5863Z" stroke="white"/>
<path d="M22.9429 42.915C23.6372 43.3161 24.2313 43.6572 24.8238 44.0014C28.4331 46.0993 32.0453 48.1912 35.6485 50.2981C38.2133 51.7974 40.7616 51.7959 43.3278 50.2981C47.3844 47.9293 51.4486 45.5756 55.5112 43.2173C55.6518 43.135 55.8 43.0662 55.9945 42.9644C56.0109 43.1589 56.0319 43.2996 56.0319 43.4403C56.0334 45.4559 56.0244 47.4715 56.0364 49.487C56.0454 51.2348 55.2807 52.5262 53.7814 53.3925C50.8291 55.0999 47.8917 56.8327 44.914 58.4951C41.2419 60.5451 37.5444 60.4853 33.8963 58.4113C30.9799 56.7534 28.0859 55.055 25.18 53.3791C23.6941 52.5217 22.9354 51.2527 22.9429 49.5274C22.9489 47.3622 22.9429 45.1985 22.9429 42.915Z" fill="white"/>
<path d="M63.8458 38.3799C63.8458 38.6851 63.8458 38.8827 63.8458 39.0817C63.8458 43.2071 63.8488 47.3341 63.8413 51.4596C63.8413 51.8097 63.9026 52.0656 64.1899 52.3304C65.3825 53.4347 65.3915 55.2947 64.2528 56.4364C63.141 57.5527 61.2825 57.5467 60.1722 56.423C59.038 55.2738 59.0574 53.4213 60.256 52.3185C60.5403 52.0566 60.6121 51.8022 60.6106 51.4476C60.6017 47.8818 60.6106 44.3159 60.5972 40.7501C60.5957 40.388 60.6929 40.18 61.0176 40.0034C61.9424 39.4992 62.8477 38.956 63.8458 38.3799Z" fill="white"/>
</svg>
